<svg xmlns="http://www.w3.org/2000/svg" width="100" height="100" viewBox="0 0 100 100"><path d="M50 0 C50 0 55 20 60 25 C65 30 70 20 70 20 C70 20 75 40 80 45 C85 50 90 40 90 40 C90 40 95 60 100 65 C100 65 95 70 90 70 C85 70 80 65 80 65 C80 65 75 75 70 80 C65 85 60 75 60 75 C60 75 55 90 50 100 C45 90 40 75 40 75 C40 75 35 85 30 80 C25 75 20 65 20 65 C20 65 15 70 10 70 C5 70 0 65 0 65 C5 60 10 40 10 40 C10 40 15 50 20 45 C25 40 30 20 30 20 C30 20 35 30 40 25 C45 20 50 0 50 0 Z" fill="currentColor" fill-opacity="0.5"></path></svg>
